<svg width="22" height="55" viewBox="0 0 22 55" fill="none" xmlns="http://www.w3.org/2000/svg">
<path id="Vector" d="M2.5 2.75001L3.54765 0.253116C2.77355 -0.139886 1.87076 -0.0718513 1.15261 0.433585C0.434475 0.939021 0 1.81219 0 2.75001H2.5ZM2.5 44H0C0 45.0726 0.566975 46.0474 1.45235 46.4969L2.5 44ZM18.75 52.25L17.7024 54.7469C18.4765 55.1398 19.3792 55.0719 20.0974 54.5665C20.8155 54.061 21.25 53.1878 21.25 52.25H18.75ZM18.75 11H21.25C21.25 9.92737 20.683 8.95263 19.7976 8.50314L18.75 11ZM1.45235 46.4969L17.7024 54.7469L19.7976 49.7531L3.54765 41.5031L1.45235 46.4969ZM19.7976 8.50314L3.54765 0.253116L1.45235 5.2469L17.7024 13.4969L19.7976 8.50314ZM16.25 11V52.25H21.25V11H16.25ZM5 44V2.75001H0V44H5Z" fill="black"/>
</svg>
